<svg xmlns="http://www.w3.org/2000/svg" viewBox="0 0 155.9 160">
<!-- SVG created with Arrow, by QuiverAI (https://quiver.ai) -->
  <style type="text/css">.cls-0 {fill:#0E0E0E;}
.cls-1 {fill:#FFFFFF;}</style>
  <rect class="cls-0" x=".4" y="2.2" width="154.8" height="155.7"/>
  <rect class="cls-1" x="18.3" y="20.5" width="119" height="118.9"/>
  <path class="cls-0" d="m96.3 65.8v21.2h-36.5v-21.2h-4.6v26.3h15.8v35.4h13.9v-35.7h15.7 0.4v-26z"/>
  <path class="cls-0" d="m93.3 40.7c-1.9-1.6-4.2-3.9-5.6-7.4h-5v26.5c-1-0.5-3.4-0.9-6-0.5-3.6 0.7-8.3 3.5-8.4 7.8-0.1 5.8 7.6 7.1 12.8 5.2 3-1.1 5.9-3.4 5.9-7.5l0.1-21.4c2.2 0.3 7 2 8.6 6.1 1 2.8-0.3 7.7-0.3 7.7l1.8 0.5c0.8-1.7 5-10.8-3.9-17z"/>
</svg>